# xmcd
#
# Track frame offsets: 
#        150
#        15250
#        28955
#        42777
#        56542
#        65180
#        76100
#        89130
#        98407
#        114342
#
# Disc length: 1724 seconds
#
# Revision: 3
# Processed by: cddbd v1.4PL0 Copyright (c) Steve Scherf et al.
# Submitted via: ExactAudioCopy v0.90b2
#
DISCID=7506ba0a
DTITLE=Merle Haggard - A Friend In California
DYEAR=1900
DGENRE=Country
TTITLE0=A Friend In California
TTITLE1=This Time I Really Do
TTITLE2=This Cold War With You
TTITLE3=I Had A Beautiful Time
TTITLE4=Texas
TTITLE5=The Oakie From Muskogee's Comin' Home
TTITLE6=Mama's Prayer
TTITLE7=Silverthorn Mountain
TTITLE8=This Song Is For You
TTITLE9=Thank You For Keeping My House
EXTD=
EXTT0=
EXTT1=
EXTT2=
EXTT3=
EXTT4=
EXTT5=
EXTT6=
EXTT7=
EXTT8=
EXTT9=
PLAYORDER=
